# xmcd
#
# Track frame offsets: 
#        150
#        6048
#        12596
#        20436
#        27480
#        33869
#        37983
#        43625
#        49682
#        57569
#        64094
#        69840
#        75134
#        80311
#        86167
#        92350
#        97784
#        103331
#        108999
#        114738
#        121506
#        128760
#        135126
#        140387
#        145793
#        152904
#        160014
#        166988
#        174151
#        180404
#        186564
#        193580
#        200091
#        205160
#        207000
#        213305
#        220520
#        226315
#        232854
#        239791
#        247013
#        252766
#        258495
#        265385
#        273805
#        280227
#        286396
#        291540
#        297934
#        304440
#        310719
#        318830
#
# Disc length: 4324 seconds
#
# Revision: 0
# Processed by: cddbd v1.5.2PL0 Copyright (c) Steve Scherf et al.
# Submitted via: ExactAudioCopy v0.99pb4
#
DISCID=d810e234
DTITLE=Chet Atkins - Radio Performances 1946
DYEAR=1900
DGENRE=Country
TTITLE0=Cannonball Rag
TTITLE1=Canned Heat
TTITLE2=Frankie And Johnny
TTITLE3=When You And I Were Young Maggie
TTITLE4=Riding Down The Canyon
TTITLE5=Address Unknown
TTITLE6=There'll Be Some Changes Made
TTITLE7=Some Of These Days
TTITLE8=Carry Me Back To Old Virginny
TTITLE9=Saturday Night Shuffle
TTITLE10=Going Down The Road Feelin' Bad
TTITLE11=Tuxedo Junction
TTITLE12=Bugle Call Rag
TTITLE13=Canned Heat
TTITLE14=Anita Blues
TTITLE15=12th Street Rag
TTITLE16=Driftin' And Dreamy
TTITLE17=Going Home
TTITLE18=New Spanish Two Step
TTITLE19=My Gal Sal
TTITLE20=My Blues Heaven
TTITLE21=Muskrat Ramble
TTITLE22=My Old Kentucky Home
TTITLE23=Unknown Instrumental
TTITLE24=Blue Steel Blues
TTITLE25=I've Been Working On The Guitar
TTITLE26=Everly Rag
TTITLE27=Corrine, Corrina
TTITLE28=Lazy River
TTITLE29=Unknown Instrumental
TTITLE30=Bicycle Built For Two
TTITLE31=Carry Me Back To Old Virginny
TTITLE32=Unknown Instrumental
TTITLE33=Unknown Instrumental
TTITLE34=John Henry
TTITLE35=Galloping On The Guitar
TTITLE36=Blue Steel Blues
TTITLE37=My Old Kentucky Home
TTITLE38=New Spanish Two Step
TTITLE39=Wildwood Flower
TTITLE40=Lay Your Burden Down
TTITLE41=Humoresque
TTITLE42=South
TTITLE43=My Old Kentucky Home
TTITLE44=Panhandle Rag
TTITLE45=Centipede Boogie
TTITLE46=Going Down The Road Feelin' Bad
TTITLE47=John Henry
TTITLE48=Unknown Instrumental
TTITLE49=Bicycle Built For Two
TTITLE50=Long Gone Boogie
TTITLE51=Cherry
EXTD=
EXTT0=
EXTT1=
EXTT2=
EXTT3=
EXTT4=
EXTT5=
EXTT6=
EXTT7=
EXTT8=
EXTT9=
EXTT10=
EXTT11=
EXTT12=
EXTT13=
EXTT14=
EXTT15=
EXTT16=
EXTT17=
EXTT18=
EXTT19=
EXTT20=
EXTT21=
EXTT22=
EXTT23=
EXTT24=
EXTT25=
EXTT26=
EXTT27=
EXTT28=
EXTT29=
EXTT30=
EXTT31=
EXTT32=
EXTT33=
EXTT34=
EXTT35=
EXTT36=
EXTT37=
EXTT38=
EXTT39=
EXTT40=
EXTT41=
EXTT42=
EXTT43=
EXTT44=
EXTT45=
EXTT46=
EXTT47=
EXTT48=
EXTT49=
EXTT50=
EXTT51=
PLAYORDER=
